<?xml version="1.0" standalone="no"?>
<!DOCTYPE svg PUBLIC "-//W3C//DTD SVG 20010904//EN"
 "http://www.w3.org/TR/2001/REC-SVG-20010904/DTD/svg10.dtd">
<svg version="1.0" xmlns="http://www.w3.org/2000/svg"
 width="1024.000000pt" height="1024.000000pt" viewBox="0 0 1024.000000 1024.000000"
 preserveAspectRatio="xMidYMid meet">

<g transform="translate(0.000000,1024.000000) scale(0.100000,-0.100000)"
fill="#000000" stroke="none">
<path d="M4594 6091 c-61 -28 -89 -73 -89 -143 0 -64 19 -97 76 -136 28 -20
44 -23 92 -20 118 9 183 106 142 214 -32 85 -136 125 -221 85z"/>
<path d="M5070 5267 l0 -828 138 3 137 3 0 553 c0 303 1 552 2 552 1 0 113
-186 249 -412 136 -227 253 -421 259 -431 10 -15 47 43 266 412 140 237 256
430 259 431 3 0 5 -249 5 -552 l0 -553 143 -3 142 -3 0 828 0 828 -137 -3
-138 -3 -255 -445 c-140 -244 -260 -451 -265 -460 -8 -11 -69 88 -275 445
l-265 460 -133 3 -132 3 0 -828z"/>
<path d="M520 5271 l0 -821 338 0 c374 0 457 9 593 61 190 73 357 229 435 406
88 198 88 497 1 695 -101 227 -291 386 -540 449 -74 19 -118 22 -454 26 l-373
5 0 -821z m729 525 c205 -52 361 -205 400 -394 14 -68 14 -216 0 -284 -31
-146 -130 -274 -263 -338 -114 -55 -202 -70 -401 -70 l-165 0 0 556 0 556 183
-5 c119 -3 204 -11 246 -21z"/>
<path d="M9122 5780 l3 -150 -72 0 -73 0 0 -110 0 -110 73 0 72 0 0 -358 c0
-349 1 -358 24 -415 53 -134 148 -202 297 -214 89 -6 210 14 275 48 l36 18
-24 108 c-13 59 -26 109 -28 111 -2 2 -24 -4 -49 -12 -108 -37 -208 -9 -233
64 -8 24 -12 132 -12 342 l-1 307 148 3 147 3 3 108 3 107 -150 0 -151 0 0
150 0 150 -146 0 -145 0 3 -150z"/>
<path d="M2530 5644 c-257 -67 -411 -294 -413 -604 -1 -200 51 -338 173 -461
114 -115 258 -169 455 -169 163 0 294 39 402 118 l42 31 -56 96 c-54 92 -57
95 -77 80 -93 -68 -205 -100 -322 -93 -181 10 -308 122 -330 288 l-7 50 422 0
421 0 0 108 c0 189 -46 317 -151 423 -63 64 -149 112 -241 134 -79 19 -246 18
-318 -1z m259 -210 c94 -27 153 -106 175 -231 l6 -33 -286 0 -286 0 7 33 c40
185 204 285 384 231z"/>
<path d="M3687 5645 c-131 -36 -239 -126 -273 -227 -22 -67 -22 -169 -1 -234
39 -114 129 -174 370 -247 81 -25 166 -57 188 -72 51 -34 72 -79 58 -128 -19
-69 -97 -101 -233 -95 -77 3 -102 9 -159 36 -38 17 -86 45 -107 62 l-38 30
-48 -77 c-26 -43 -54 -87 -61 -99 -12 -19 -9 -24 47 -63 80 -56 159 -87 272
-107 154 -27 298 -7 417 56 194 104 252 356 117 507 -68 75 -157 116 -373 173
-94 25 -169 68 -183 106 -64 168 222 230 429 92 53 -35 47 -40 118 90 43 80
44 84 27 98 -41 32 -140 76 -212 95 -89 23 -279 25 -355 4z"/>
<path d="M7204 5640 c-68 -17 -167 -62 -208 -92 -17 -14 -16 -19 29 -109 26
-52 48 -95 49 -96 2 -2 34 13 72 32 143 73 305 73 414 1 51 -33 81 -99 88
-189 5 -66 4 -70 -14 -63 -94 36 -291 54 -404 37 -93 -14 -204 -65 -253 -116
-147 -152 -115 -452 61 -564 172 -109 451 -82 571 56 l41 46 0 -72 0 -72 138
3 137 3 3 390 c3 427 -4 498 -54 597 -53 104 -152 179 -279 213 -86 22 -299
20 -391 -5z m409 -680 c37 -11 37 -11 37 -63 0 -91 -55 -178 -140 -222 -15 -8
-57 -19 -93 -25 -129 -20 -223 24 -246 116 -25 99 19 169 129 205 34 12 266 3
313 -11z"/>
<path d="M8663 5646 c-83 -27 -164 -96 -200 -171 -9 -19 -20 -35 -25 -35 -4 0
-8 43 -8 95 l0 95 -135 0 -135 0 0 -595 0 -595 134 0 135 0 3 353 c3 337 4
354 26 408 29 73 77 128 143 164 47 26 64 30 134 30 44 0 90 -4 103 -8 l23 -9
-3 139 -3 138 -75 2 c-41 1 -94 -4 -117 -11z"/>
<path d="M4530 5035 l0 -595 135 0 135 0 0 595 0 595 -135 0 -135 0 0 -595z"/>
</g>
</svg>
